<svg width="32" height="32" viewBox="0 0 32 32" fill="none" xmlns="http://www.w3.org/2000/svg">
<path d="M21.3334 28V25.3333C21.3334 23.9188 20.7714 22.5623 19.7713 21.5621C18.7711 20.5619 17.4145 20 16 20H8.00002C6.58553 20 5.22898 20.5619 4.22878 21.5621C3.22859 22.5623 2.66669 23.9188 2.66669 25.3333V28" stroke="#101828" stroke-width="2.66667" stroke-linecap="round" stroke-linejoin="round"/>
<path d="M21.3333 4.17065C22.477 4.46715 23.4898 5.13501 24.2129 6.0694C24.9359 7.0038 25.3282 8.15184 25.3282 9.33332C25.3282 10.5148 24.9359 11.6628 24.2129 12.5972C23.4898 13.5316 22.477 14.1995 21.3333 14.496" stroke="#101828" stroke-width="2.66667" stroke-linecap="round" stroke-linejoin="round"/>
<path d="M29.3333 27.9998V25.3331C29.3324 24.1514 28.9391 23.0035 28.2151 22.0695C27.4911 21.1356 26.4775 20.4685 25.3333 20.1731" stroke="#101828" stroke-width="2.66667" stroke-linecap="round" stroke-linejoin="round"/>
<path d="M12.3333 14.4667C15.2789 14.4667 17.6667 12.0789 17.6667 9.13338C17.6667 6.18786 15.2789 3.80005 12.3333 3.80005C9.38781 3.80005 7 6.18786 7 9.13338C7 12.0789 9.38781 14.4667 12.3333 14.4667Z" stroke="#101828" stroke-width="2.66667" stroke-linecap="round" stroke-linejoin="round"/>
</svg>
