<svg width="48" height="48" viewBox="0 0 48 48" fill="none" xmlns="http://www.w3.org/2000/svg">
<path d="M0 10C0 4.47715 4.47715 0 10 0H38C43.5229 0 48 4.47715 48 10V38C48 43.5229 43.5228 48 38 48H10C4.47715 48 0 43.5228 0 38V10Z" fill="url(#paint0_linear_2_71)"/>
<path d="M23 29H26V31C26 31.2652 26.1054 31.5196 26.2929 31.7071C26.4804 31.8946 26.7348 32 27 32H29C29.2652 32 29.5196 31.8946 29.7071 31.7071C29.8946 31.5196 30 31.2652 30 31V28C30.4658 27.8449 30.8891 27.5834 31.2363 27.2363C31.5834 26.8891 31.8449 26.4658 32 26H33C33.2652 26 33.5196 25.8946 33.7071 25.7071C33.8946 25.5196 34 25.2652 34 25V23C34 22.7348 33.8946 22.4804 33.7071 22.2929C33.5196 22.1054 33.2652 22 33 22H32C32 21.2238 31.8193 20.4582 31.4721 19.7639C31.125 19.0697 30.621 18.4657 30 18V15C29.379 15 28.7666 15.1446 28.2111 15.4223C27.6557 15.7 27.1726 16.1032 26.8 16.6L26.5 17H23C21.4087 17 19.8826 17.6321 18.7574 18.7574C17.6321 19.8826 17 21.4087 17 23V24C17 24.7762 17.1807 25.5418 17.5279 26.2361C17.875 26.9303 18.379 27.5343 19 28V31C19 31.2652 19.1054 31.5196 19.2929 31.7071C19.4804 31.8946 19.7348 32 20 32H22C22.2652 32 22.5196 31.8946 22.7071 31.7071C22.8946 31.5196 23 31.2652 23 31V29Z" stroke="#FAB005" stroke-width="2" stroke-linecap="round" stroke-linejoin="round"/>
<path d="M28 22H28.01" stroke="#FAB005" stroke-width="2" stroke-linecap="round" stroke-linejoin="round"/>
<path d="M14 20V21C14 21.5304 14.2107 22.0391 14.5858 22.4142C14.9609 22.7893 15.4696 23 16 23H17" stroke="#FAB005" stroke-width="2" stroke-linecap="round" stroke-linejoin="round"/>
<defs>
<linearGradient id="paint0_linear_2_71" x1="24" y1="0" x2="24" y2="48" gradientUnits="userSpaceOnUse">
<stop stop-color="#FCC419" stop-opacity="0.15"/>
<stop offset="1" stop-color="white" stop-opacity="0.9"/>
</linearGradient>
</defs>
</svg>
