<svg width="32" height="32" viewBox="0 0 32 32" fill="none" xmlns="http://www.w3.org/2000/svg">
<path d="M20.636 17.1865L22.656 28.5545C22.6786 28.6884 22.6598 28.826 22.6021 28.9489C22.5445 29.0718 22.4506 29.1741 22.3332 29.2423C22.2158 29.3104 22.0804 29.341 21.945 29.3301C21.8097 29.3192 21.681 29.2673 21.576 29.1812L16.8026 25.5985C16.5722 25.4264 16.2923 25.3334 16.0046 25.3334C15.717 25.3334 15.4371 25.4264 15.2066 25.5985L10.4253 29.1799C10.3204 29.2658 10.1918 29.3177 10.0566 29.3286C9.92148 29.3395 9.7862 29.309 9.66886 29.241C9.55151 29.1731 9.45767 29.071 9.39987 28.9483C9.34206 28.8256 9.32302 28.6883 9.34531 28.5545L11.364 17.1865" stroke="#101828" stroke-width="2.66667" stroke-linecap="round" stroke-linejoin="round"/>
<path d="M16 18.6667C20.4183 18.6667 24 15.085 24 10.6667C24 6.24847 20.4183 2.66675 16 2.66675C11.5817 2.66675 8 6.24847 8 10.6667C8 15.085 11.5817 18.6667 16 18.6667Z" stroke="#101828" stroke-width="2.66667" stroke-linecap="round" stroke-linejoin="round"/>
</svg>
